Genre:Horror | Mystery | Thriller
Language:English
IMDb:http://www.imdb.com/title/tt1170350/
Source:DVDR
Encoder: Tony2
..............................................
General
Complete name : Crush.2009.DVDRip.H264.FEEL-FREE
Format : MPEG-4
Format profile : Base Media
Codec ID : isom
File size : 939 MiB
Duration : 1h 20mn
Overall bit rate : 1 635 Kbps
...............................................
Video
ID : 1
Format : AVC
Format/Info : Advanced Video Codec
Format profile : Baseline@L5.1
Format settings, CABAC : No
Format settings, ReFrames : 1 frame
Codec ID : avc1
Codec ID/Info : Advanced Video Coding
Duration : 1h 20mn
Bit rate mode : Variable
Bit rate : 1 502 Kbps
Width : 644 pixels
Height : 302 pixels
Display aspect ratio : 2.2:1
Frame rate mode : Constant
Frame rate : 23.976 fps
Resolution : 24 bits
Colorimetry : 4:2:0
Scan type : Progressive
Bits/(Pixel*Frame) : 0.322
Stream size : 863 MiB (92%)
..............................................
Audio
ID : 2
Format : AAC
Format/Info : Advanced Audio Codec
Format version : Version 4
Format profile : LC
Format settings, SBR : No
Codec ID : 40
Duration : 1h 20mn
Bit rate mode : Variable
Bit rate : 128 Kbps
Channel(s) : 2 channels
Channel positions : L R
Sampling rate : 48.0 KHz
Resolution : 16 bits
Stream size : 73.5 MiB (8%)
.............................................
Plot:
A university student is stalked by an obsessed girl who has supernatural powers
 
http://www.starshare.ro/bitbucket/Crush.2009.DVDRip.H264.FEEL-FREE.mp4_thumbs_%5B2010.07.16_19.46.01%5D.jpg